<?xml version="1.0" encoding="utf-8"?>
<!-- Generator: Adobe Illustrator 22.0.1, SVG Export Plug-In . SVG Version: 6.00 Build 0)  -->
<svg version="1.0" id="Layer_1" xmlns="http://www.w3.org/2000/svg" xmlns:xlink="http://www.w3.org/1999/xlink" x="0px" y="0px"
	 viewBox="0 0 120 44" style="enable-background:new 0 0 120 44;" xml:space="preserve">
<style type="text/css">
	.st0{fill:#D09B3E;}
	.st1{fill:#929BB8;}
	.st2{fill:#FFFFFF;}
</style>
<g>
	<polygon class="st0" points="10.2,10.5 3,23 10.2,35.4 24.6,35.4 31.8,23 29.8,19.6 27.2,19.6 29.1,23 23.3,33.1 11.5,33.1 5.7,23 
		11.5,12.8 23.3,12.8 24.5,15 27.2,15 24.6,10.5 	"/>
	<polygon class="st1" points="36.9,3 22.5,3 18.8,9.4 21.5,9.4 23.8,5.3 35.6,5.3 41.4,15.4 35.6,25.6 23.8,25.6 18,15.4 18.8,14 
		16.2,14 15.3,15.4 22.5,27.9 36.9,27.9 44.1,15.4 	"/>
	<polygon class="st2" points="34.5,16.1 20.1,16.1 12.9,28.6 14.9,32 17.5,32 15.5,28.6 21.4,18.4 33.1,18.4 39,28.6 33.1,38.7 
		21.4,38.7 20.2,36.5 17.5,36.5 20.1,41 34.5,41 41.7,28.6 	"/>
</g>
<g>
	<g>
		<path class="st2" d="M51.8,4.6v3.5h3.7V4.6h1.6v8.8h-1.6V9.5h-3.7v3.9h-1.6V4.6H51.8z"/>
		<path class="st2" d="M64.1,9.5h-3.3v2.6h3.7v1.3h-5.3V4.6h5.1v1.3h-3.5v2.3h3.3V9.5z"/>
		<path class="st2" d="M66.1,4.7c0.6-0.1,1.5-0.2,2.4-0.2c1.3,0,2.1,0.2,2.7,0.7C71.7,5.7,72,6.3,72,7c0,1.1-0.8,1.9-1.6,2.2v0
			c0.6,0.2,1,0.8,1.2,1.7c0.3,1.1,0.5,2.1,0.7,2.4h-1.6c-0.1-0.3-0.4-1-0.6-2.1c-0.3-1.1-0.7-1.5-1.6-1.5h-0.8v3.6h-1.6V4.7z
			 M67.7,8.6h0.9c1.1,0,1.7-0.6,1.7-1.4c0-0.9-0.7-1.4-1.7-1.4c-0.5,0-0.8,0-1,0.1V8.6z"/>
		<path class="st2" d="M81.1,9.8C81,8.7,81,7.3,81,6.1h0c-0.3,1.1-0.7,2.2-1,3.4l-1.3,3.8h-1.2l-1.2-3.7c-0.3-1.1-0.7-2.3-0.9-3.4h0
			c0,1.1-0.1,2.5-0.2,3.7L75,13.4h-1.5l0.6-8.8h2.1l1.1,3.5c0.3,1,0.6,2.1,0.8,3h0c0.2-0.9,0.5-2,0.9-3.1l1.2-3.5h2.1l0.5,8.8h-1.6
			L81.1,9.8z"/>
		<path class="st2" d="M89.6,9.5h-3.3v2.6h3.7v1.3h-5.3V4.6h5.1v1.3h-3.5v2.3h3.3V9.5z"/>
		<path class="st2" d="M91.5,11.6c0.5,0.3,1.3,0.6,2.1,0.6c1,0,1.6-0.5,1.6-1.2c0-0.7-0.4-1.1-1.5-1.5C92.2,9,91.3,8.3,91.3,7
			c0-1.4,1.2-2.5,3.1-2.5c0.9,0,1.6,0.2,2.1,0.4l-0.4,1.3c-0.3-0.2-0.9-0.4-1.8-0.4c-1,0-1.4,0.5-1.4,1.1c0,0.7,0.5,1,1.7,1.4
			c1.5,0.6,2.2,1.3,2.2,2.6c0,1.4-1.1,2.6-3.3,2.6c-0.9,0-1.9-0.3-2.4-0.6L91.5,11.6z"/>
		<path class="st2" d="M57.6,22.8c-0.1-1.1-0.1-2.5-0.1-3.7h0c-0.3,1.1-0.6,2.2-1,3.4l-1.3,3.8h-1.2l-1.2-3.7
			c-0.3-1.1-0.6-2.3-0.9-3.4h0c0,1.1-0.1,2.5-0.2,3.7l-0.2,3.5H50l0.6-8.8h2.1l1.1,3.5c0.3,1,0.6,2.1,0.8,3h0c0.2-0.9,0.5-2,0.9-3.1
			l1.2-3.5h2.1l0.5,8.8h-1.6L57.6,22.8z"/>
		<path class="st2" d="M66.1,22.5h-3.3v2.6h3.7v1.3h-5.3v-8.8h5.1v1.3h-3.5v2.3h3.3V22.5z"/>
		<path class="st2" d="M68.1,17.7c0.7-0.1,1.6-0.2,2.5-0.2c1.6,0,2.8,0.3,3.6,1c0.9,0.7,1.4,1.7,1.4,3.2c0,1.6-0.5,2.7-1.4,3.5
			c-0.9,0.8-2.3,1.2-4,1.2c-0.9,0-1.6-0.1-2.2-0.1V17.7z M69.7,25.2c0.2,0,0.6,0,0.9,0c2.1,0,3.3-1.1,3.3-3.4c0-1.9-1.1-3-3.1-3
			c-0.5,0-0.9,0-1.1,0.1V25.2z"/>
		<path class="st2" d="M78.8,17.6v8.8h-1.6v-8.8H78.8z"/>
		<path class="st2" d="M87.1,26.1c-0.4,0.2-1.2,0.4-2.3,0.4c-2.8,0-4.5-1.7-4.5-4.4c0-2.9,2-4.6,4.7-4.6c1.1,0,1.8,0.2,2.1,0.4
			l-0.3,1.3c-0.4-0.2-1-0.3-1.7-0.3c-1.8,0-3.1,1.1-3.1,3.2c0,1.9,1.1,3.2,3.1,3.2c0.6,0,1.3-0.1,1.7-0.3L87.1,26.1z"/>
		<path class="st2" d="M90.4,23.9l-0.8,2.5H88l2.8-8.8h2l2.8,8.8H94l-0.8-2.5H90.4z M92.9,22.7l-0.7-2.2c-0.2-0.5-0.3-1.1-0.4-1.6h0
			c-0.1,0.5-0.3,1.1-0.4,1.6l-0.7,2.2H92.9z"/>
		<path class="st2" d="M97.2,17.6h1.6V25h3.6v1.3h-5.2V17.6z"/>
		<path class="st2" d="M50.2,37.6c0.5,0.3,1.3,0.6,2.1,0.6c1,0,1.6-0.5,1.6-1.2c0-0.7-0.4-1.1-1.5-1.5C50.9,35,50,34.3,50,33
			c0-1.4,1.2-2.5,3.1-2.5c0.9,0,1.6,0.2,2.1,0.4l-0.4,1.3c-0.3-0.2-0.9-0.4-1.8-0.4c-1,0-1.4,0.5-1.4,1.1c0,0.7,0.5,1,1.7,1.4
			c1.5,0.6,2.2,1.3,2.2,2.6c0,1.4-1.1,2.6-3.3,2.6c-0.9,0-1.9-0.3-2.4-0.6L50.2,37.6z"/>
		<path class="st2" d="M65,34.9c0,2.9-1.8,4.6-4.2,4.6c-2.5,0-4-1.9-4-4.5c0-2.7,1.7-4.6,4.2-4.6C63.5,30.5,65,32.4,65,34.9z
			 M58.4,35c0,1.8,0.9,3.2,2.4,3.2c1.5,0,2.4-1.4,2.4-3.3c0-1.7-0.8-3.2-2.4-3.2C59.3,31.8,58.4,33.2,58.4,35z"/>
		<path class="st2" d="M66.6,30.6h1.6V38h3.6v1.3h-5.2V30.6z"/>
		<path class="st2" d="M74.8,30.6v5.1c0,1.7,0.7,2.5,1.8,2.5c1.2,0,1.8-0.8,1.8-2.5v-5.1H80v5c0,2.7-1.4,3.9-3.5,3.9
			c-2,0-3.3-1.1-3.3-3.9v-5H74.8z"/>
		<path class="st2" d="M83.7,32h-2.5v-1.3h6.6V32h-2.5v7.4h-1.6V32z"/>
		<path class="st2" d="M90.7,30.6v8.8h-1.6v-8.8H90.7z"/>
		<path class="st2" d="M100.5,34.9c0,2.9-1.8,4.6-4.2,4.6c-2.5,0-4-1.9-4-4.5c0-2.7,1.7-4.6,4.2-4.6C99,30.5,100.5,32.4,100.5,34.9z
			 M93.9,35c0,1.8,0.9,3.2,2.4,3.2c1.5,0,2.4-1.4,2.4-3.3c0-1.7-0.8-3.2-2.4-3.2C94.8,31.8,93.9,33.2,93.9,35z"/>
		<path class="st2" d="M102.1,39.4v-8.8h1.8l2.3,3.8c0.6,1,1.1,2,1.5,2.9h0c-0.1-1.2-0.1-2.3-0.1-3.6v-3.1h1.5v8.8h-1.7l-2.3-3.9
			c-0.6-1-1.1-2-1.6-3l-0.1,0c0.1,1.1,0.1,2.3,0.1,3.7v3.1H102.1z"/>
		<path class="st2" d="M111,37.6c0.5,0.3,1.3,0.6,2.1,0.6c1,0,1.6-0.5,1.6-1.2c0-0.7-0.4-1.1-1.5-1.5c-1.5-0.5-2.4-1.3-2.4-2.5
			c0-1.4,1.2-2.5,3.1-2.5c0.9,0,1.6,0.2,2.1,0.4l-0.4,1.3c-0.3-0.2-0.9-0.4-1.8-0.4c-1,0-1.4,0.5-1.4,1.1c0,0.7,0.5,1,1.7,1.4
			c1.5,0.6,2.2,1.3,2.2,2.6c0,1.4-1.1,2.6-3.3,2.6c-0.9,0-1.9-0.3-2.4-0.6L111,37.6z"/>
	</g>
</g>
</svg>
